<?xml version="1.0" encoding="utf-8"?>
<!-- Generator: Adobe Illustrator 20.1.0, SVG Export Plug-In . SVG Version: 6.00 Build 0)  -->
<svg version="1.1" id="Layer_1" xmlns="http://www.w3.org/2000/svg" xmlns:xlink="http://www.w3.org/1999/xlink" x="0px" y="0px"
	 viewBox="0 0 16 16" style="enable-background:new 0 0 16 16;" xml:space="preserve">
<path d="M8,0.5C4.4,0.5,1.5,3.4,1.5,7c0,1.8,0.7,3.4,2,4.7c0.2,0.2,0.5,0.2,0.7,0c0.2-0.2,0.2-0.5,0-0.7C3.1,9.9,2.5,8.5,2.5,7
	C2.5,4,5,1.5,8,1.5c3,0,5.5,2.5,5.5,5.5c0,3-2.5,5.5-5.5,5.5c-0.2,0-0.3,0.1-0.4,0.2l-1.5,2c-0.2,0.2-0.1,0.5,0.1,0.7
	c0.1,0.1,0.2,0.1,0.3,0.1c0.2,0,0.3-0.1,0.4-0.2l1.4-1.8c3.5-0.1,6.2-3,6.2-6.5C14.5,3.4,11.6,0.5,8,0.5z"/>
<path d="M7.5,9.5C7.5,9.8,7.7,10,8,10s0.5-0.2,0.5-0.5v-2h2C10.8,7.5,11,7.3,11,7s-0.2-0.5-0.5-0.5h-2v-2C8.5,4.2,8.3,4,8,4
	S7.5,4.2,7.5,4.5v2h-2C5.2,6.5,5,6.7,5,7s0.2,0.5,0.5,0.5h2V9.5z"/>
</svg>
