<?xml version="1.0" encoding="utf-8"?>
<!-- Generator: Adobe Illustrator 20.1.0, SVG Export Plug-In . SVG Version: 6.00 Build 0)  -->
<svg version="1.1" id="Layer_1" xmlns="http://www.w3.org/2000/svg" xmlns:xlink="http://www.w3.org/1999/xlink" x="0px" y="0px"
	 viewBox="0 0 14 14" style="enable-background:new 0 0 14 14;" xml:space="preserve">
<path id="Combined-Shape" d="M8,0c1,0,3.8,0,4.5,0c1,0,1.5,0.5,1.5,1.5V6c0,1-1,1.9-1,1.9s0,0-4.5,4.6c-1.4,1.4-1.4,1.6-3,0
	c-4-4,0,0-4-4C0,7,0.1,6.9,1.5,5.5C6.1,1,6.1,1,6.1,1S7,0,8,0z M10,6c1.1,0,2-0.9,2-2s-0.9-2-2-2S8,2.9,8,4S8.9,6,10,6z"/>
</svg>
