<?xml version="1.0" encoding="utf-8"?>
<!-- Generator: Adobe Illustrator 20.1.0, SVG Export Plug-In . SVG Version: 6.00 Build 0)  -->
<svg version="1.1" id="Layer_1" xmlns="http://www.w3.org/2000/svg" xmlns:xlink="http://www.w3.org/1999/xlink" x="0px" y="0px"
	 viewBox="0 0 14 14" style="enable-background:new 0 0 14 14;" xml:space="preserve">
<path d="M3.6,6.9l3,3c0,0,0.1,0.1,0.2,0.1C6.9,10,7.1,10,7.2,10c0.1,0,0.1-0.1,0.2-0.1l3-3c0.2-0.2,0.2-0.5,0-0.7S9.8,6,9.6,6.1
	L7.5,8.3V0.5C7.5,0.2,7.3,0,7,0S6.5,0.2,6.5,0.5v7.8L4.4,6.1C4.3,6,4.1,6,4,6S3.7,6,3.6,6.1C3.5,6.3,3.5,6.7,3.6,6.9z"/>
<polygon points="14,14 0,14 0,7.5 1,7.5 1,13 13,13 13,7.5 14,7.5 "/>
</svg>
