<?xml version="1.0" encoding="utf-8"?>
<!-- Generator: Adobe Illustrator 20.1.0, SVG Export Plug-In . SVG Version: 6.00 Build 0)  -->
<svg version="1.1" id="Layer_1" xmlns="http://www.w3.org/2000/svg" xmlns:xlink="http://www.w3.org/1999/xlink" x="0px" y="0px"
	 viewBox="0 0 14 14" style="enable-background:new 0 0 14 14;" xml:space="preserve">
<path d="M10.4,3.1l-3-3c0,0-0.1-0.1-0.2-0.1C7.1,0,6.9,0,6.8,0c-0.1,0-0.1,0.1-0.2,0.1l-3,3c-0.2,0.2-0.2,0.5,0,0.7s0.5,0.2,0.7,0
	l2.1-2.1v7.8C6.5,9.8,6.7,10,7,10s0.5-0.2,0.5-0.5V1.7l2.1,2.1C9.7,4,9.9,4,10,4s0.3,0,0.4-0.1C10.5,3.7,10.5,3.3,10.4,3.1z"/>
<polygon points="14,14 0,14 0,7.5 1,7.5 1,13 13,13 13,7.5 14,7.5 "/>
</svg>
