<?xml version="1.0" encoding="utf-8"?>
<!-- Generator: Adobe Illustrator 20.1.0, SVG Export Plug-In . SVG Version: 6.00 Build 0)  -->
<svg version="1.1" id="Layer_1" xmlns="http://www.w3.org/2000/svg" xmlns:xlink="http://www.w3.org/1999/xlink" x="0px" y="0px"
	 viewBox="0 0 24 24" style="enable-background:new 0 0 24 24;" xml:space="preserve">
<path d="M12,0.5c-5.2,0-9.5,4.3-9.5,9.5c0,2.6,1,5,2.9,6.8c0.2,0.2,0.5,0.2,0.7,0c0.2-0.2,0.2-0.5,0-0.7c-1.7-1.6-2.6-3.8-2.6-6.1
	c0-4.7,3.8-8.5,8.5-8.5c4.7,0,8.5,3.8,8.5,8.5c0,4.7-3.8,8.5-8.5,8.5c-0.2,0-0.3,0.1-0.4,0.2l-3,4c-0.2,0.2-0.1,0.5,0.1,0.7
	c0.1,0.1,0.2,0.1,0.3,0.1c0.2,0,0.3-0.1,0.4-0.2l2.9-3.8c5.1-0.1,9.2-4.3,9.2-9.5C21.5,4.8,17.2,0.5,12,0.5z"/>
<path d="M11.5,14c0,0.3,0.2,0.5,0.5,0.5s0.5-0.2,0.5-0.5v-3.5H16c0.3,0,0.5-0.2,0.5-0.5S16.3,9.5,16,9.5h-3.5V6
	c0-0.3-0.2-0.5-0.5-0.5S11.5,5.7,11.5,6v3.5H8c-0.3,0-0.5,0.2-0.5,0.5s0.2,0.5,0.5,0.5h3.5V14z"/>
</svg>
