<?xml version="1.0" encoding="utf-8"?>
<!-- Generator: Adobe Illustrator 20.1.0, SVG Export Plug-In . SVG Version: 6.00 Build 0)  -->
<svg version="1.1" id="Layer_1" xmlns="http://www.w3.org/2000/svg" xmlns:xlink="http://www.w3.org/1999/xlink" x="0px" y="0px"
	 viewBox="0 0 24 24" style="enable-background:new 0 0 24 24;" xml:space="preserve">
<path d="M24,13.8V0H7.5h-1L0,6.5v1V24h13h4.5c3.6,0,6.5-2.9,6.5-6.5S21.1,11,17.5,11c-2,0-3.8,0.9-5,2.3V9h-1v6.5H18v-1h-5.1
	c1-1.6,2.7-2.5,4.6-2.5c3,0,5.5,2.5,5.5,5.5S20.5,23,17.5,23H13H1.3H1V7.5h6.5V1H23v11.4C23.4,12.8,23.7,13.3,24,13.8z M1.4,6.5
	l5.1-5.1v5.1H1.4z"/>
</svg>
